<?xml version="1.0" encoding="UTF-8"?>
<svg id="Layer_1" data-name="Layer 1" xmlns="http://www.w3.org/2000/svg" viewBox="0 0 1024 1024">
  <defs>
    <style>
      .cls-1 {
        fill: #c1ec72;
      }
    </style>
  </defs>
  <path class="cls-1" d="M850.57,818.49c-1.85,1.15-3.75,2.19-5.68,3.13-.36,.19-.72,.36-1.08,.51-.43,.19-.87,.38-1.28,.55-17.64,7.24-37.12,5.94-53.27-2.5-.99-.51-1.95-1.06-2.91-1.64-.55-.34-1.08-.67-1.61-1.01-.14-.07-.31-.17-.46-.31-7.8-5.12-14.56-12.1-19.63-20.74-1.18-2.02-2.36-4.02-3.51-6.04,.72,1.61,1.54,3.22,2.43,4.79l-127.37-220.65,36.55-63.28,34.38-59.55c.34-.55,.79-1.01,1.88-2.33,10.06,17.32,19.78,34.02,29.45,50.77,43.64,75.52,87.22,151.07,130.91,226.55,.63,1.08,1.25,2.19,1.88,3.27,18.79,32.46,10.35,69.15-20.67,88.49Z"/>
  <path class="cls-1" d="M757.75,290.6c-.07,.14-.14,.29-.24,.43l-1.52,2.65c-.12,.22-.26,.46-.41,.67l-67.78,117.41-72.8,126.12-104.61,181.19s-.05,.1-.07,.14l-13.31,23.03-.05,.05c-1.71,2.5-3.42,5-5.22,7.46-6.26,8.61-12.9,16.5-19.97,23.67-31.76,31.13-74.56,51.13-121.96,53.53-3.2,.17-6.42,.24-9.67,.24-12.27,0-24.28-1.18-35.87-3.44-11.62-2.21-22.86-5.53-33.59-9.82-28.63-11.38-53.8-29.59-73.45-52.62l-.7,1.2c-23.07-26.73-38.88-60.34-44.34-98.09-5.03-34.69-.1-67.39,13.06-98.4L369.19,212.81l.17,.31c1.23-2.5,2.53-4.98,3.95-7.43,7.92-13.71,18.29-25.17,30.24-34.07,34.09-25.41,81.03-30.27,120.66-9.12,.41,.22,.82,.43,1.23,.67,16.67,9.46,31.47,23.43,42.49,41.91,.14,.22,.29,.46,.43,.7,4.96,8.44,9.82,16.91,14.65,25.41l.02,.05,4.84,33.27-.51,.87c-3.63,6.38-7.29,12.73-10.95,19.08l-1.78,3.08c-8.3,14.39-16.63,28.75-24.95,43.14l-.41,.72c-8.23,14.12-16.43,28.25-24.64,42.37-.53,.89-1.28,1.68-2.38,3.18-10.8-18.6-21.51-37.05-32.34-55.7l-.17-.29-12.01-20.79-7.12-12.34-.05,.1c-.19-.34-.41-.7-.6-1.03-6.91,11.89-13.23,22.74-19.51,33.64-8.59,14.87-17.18,29.71-25.77,44.58,.34,.17,.7,.34,1.03,.48l-51.25,88.76v.02l-88.73,153.67c-.14,.24-.31,.51-.46,.77-.17,.29-.34,.58-.48,.87-9.86,17.71-10.13,38.23-2.43,55.48,.22,.53,.48,1.06,.75,1.59,.07,.12,.12,.24,.19,.36,3.75,7.7,9.14,14.68,16,20.38,.07,.05,.14,.1,.19,.17,6.35,5.46,13.71,9.6,21.63,11.84,4.72,1.32,9.5,2.14,14.24,2.43l.1-.17c21.29,1.2,42.47-8.66,54.98-27.28,.02-.05,.05-.07,.07-.12,.77-1.13,1.49-2.31,2.19-3.51,.67-1.18,1.32-2.38,1.9-3.58,.05-.05,.07-.07,.07-.12l87.34-151.26,60.13-104.15,53.63-92.87,18.91-32.75,.29-.51,32.46-56.23c17.42-30.17,56.01-40.52,86.18-23.1,2.21,1.28,4.33,2.67,6.33,4.19,.07,.05,.14,.1,.22,.14,24.49,18.53,32.29,52.43,17.59,80Z"/>
  <path class="cls-1" d="M801.82,60.29c-21.1-5.71-42.71,3.02-54.03,21.66-1.13,2.6-2.43,5.17-3.39,7.82-3.16,8.64-3.98,17.62-3.64,26.72,.59,15.82,4.18,31.04,9.49,45.87,1.53,4.24,5.31,6.24,9.89,5.42,8.53-1.53,16.92-3.7,25.14-6.52,10.85-3.73,21.21-8.45,30.42-15.39,8.3-6.24,14.72-13.9,18.27-23.81,9.24-25.73-5.76-54.63-32.14-61.77Zm4.18,55.76c-5.45,9.35-17.48,12.54-26.83,7.12-9.35-5.42-12.57-17.48-7.15-26.83,5.45-9.35,17.46-12.51,26.83-7.09,9.38,5.45,12.6,17.48,7.15,26.8Z"/>
  <polyline class="cls-1" points="523.36 376.27 549.27 331.4 549.68 330.68 587.36 265.38 587.86 264.51"/>
  <polygon class="cls-1" points="595.06 252.08 587.86 264.51 583.03 231.24 584.42 233.67 595.06 252.08"/>
</svg>