<svg xmlns="http://www.w3.org/2000/svg" xmlns:xlink="http://www.w3.org/1999/xlink" width="2000" zoomAndPan="magnify" viewBox="0 0 1500 1499.999933" height="2000" preserveAspectRatio="xMidYMid meet" version="1.0"><defs><clipPath id="2463649a84"><path d="M 838 679 L 1017 679 L 1017 954.230469 L 838 954.230469 Z M 838 679 " clip-rule="nonzero"/></clipPath><clipPath id="eb53453524"><path d="M 486 461 L 933 461 L 933 954.230469 L 486 954.230469 Z M 486 461 " clip-rule="nonzero"/></clipPath><clipPath id="93acd8c2e4"><path d="M 853 303 L 1089 303 L 1089 536 L 853 536 Z M 853 303 " clip-rule="nonzero"/></clipPath><clipPath id="f0b1d32b7e"><path d="M 838.171875 411.785156 L 950.132812 288.609375 L 1103.503906 428.015625 L 991.546875 551.191406 Z M 838.171875 411.785156 " clip-rule="nonzero"/></clipPath><clipPath id="0c4a803236"><path d="M 862.796875 385.65625 L 926.902344 315.128906 C 933.191406 308.210938 941.96875 304.074219 951.308594 303.628906 C 960.648438 303.183594 969.78125 306.464844 976.699219 312.753906 L 1077.128906 404.039062 C 1084.046875 410.328125 1088.183594 419.105469 1088.628906 428.445312 C 1089.074219 437.785156 1085.792969 446.917969 1079.503906 453.835938 L 1015.398438 524.363281 C 1009.109375 531.28125 1000.332031 535.417969 990.992188 535.863281 C 981.65625 536.308594 972.523438 533.023438 965.605469 526.738281 L 865.171875 435.453125 C 858.253906 429.164062 854.117188 420.386719 853.671875 411.046875 C 853.226562 401.707031 856.511719 392.574219 862.796875 385.65625 Z M 862.796875 385.65625 " clip-rule="nonzero"/></clipPath><clipPath id="1e0473bcc5"><path d="M 0.199219 0.121094 L 236 0.121094 L 236 233 L 0.199219 233 Z M 0.199219 0.121094 " clip-rule="nonzero"/></clipPath><clipPath id="bf0a436a0b"><path d="M -14.828125 108.785156 L 97.132812 -14.390625 L 250.503906 125.015625 L 138.546875 248.191406 Z M -14.828125 108.785156 " clip-rule="nonzero"/></clipPath><clipPath id="64fadea8d0"><path d="M 9.796875 82.65625 L 73.902344 12.128906 C 80.191406 5.210938 88.96875 1.074219 98.308594 0.628906 C 107.648438 0.183594 116.78125 3.464844 123.699219 9.753906 L 224.128906 101.039062 C 231.046875 107.328125 235.183594 116.105469 235.628906 125.445312 C 236.074219 134.785156 232.792969 143.917969 226.503906 150.835938 L 162.398438 221.363281 C 156.109375 228.28125 147.332031 232.417969 137.992188 232.863281 C 128.65625 233.308594 119.523438 230.023438 112.605469 223.738281 L 12.171875 132.453125 C 5.253906 126.164062 1.117188 117.386719 0.671875 108.046875 C 0.226562 98.707031 3.511719 89.574219 9.796875 82.65625 Z M 9.796875 82.65625 " clip-rule="nonzero"/></clipPath><clipPath id="1a07a9d4b7"><rect x="0" width="236" y="0" height="233"/></clipPath><clipPath id="987db22202"><path d="M 923 388 L 1003 388 L 1003 484 L 923 484 Z M 923 388 " clip-rule="nonzero"/></clipPath><clipPath id="edab88ea79"><path d="M 949.792969 368.484375 L 1022.34375 416.496094 L 962.332031 507.183594 L 889.777344 459.175781 Z M 949.792969 368.484375 " clip-rule="nonzero"/></clipPath><clipPath id="daa171eafe"><path d="M 949.792969 368.484375 L 1022.34375 416.496094 L 962.332031 507.183594 L 889.777344 459.175781 Z M 949.792969 368.484375 " clip-rule="nonzero"/></clipPath></defs><g clip-path="url(#2463649a84)"><path fill="#c1ec72" d="M 1010.003906 885.898438 L 890.882812 679.617188 L 838.363281 770.691406 L 931.109375 931.378906 C 939.492188 945.90625 954.800781 954.175781 970.558594 954.175781 C 978.265625 954.175781 986.089844 952.164062 993.242188 948.03125 C 1015.144531 935.402344 1022.519531 907.691406 1010.003906 885.898438 Z M 1010.003906 885.898438 " fill-opacity="1" fill-rule="nonzero"/></g><g clip-path="url(#eb53453524)"><path fill="#c1ec72" d="M 926.417969 566.308594 L 875.910156 653.804688 L 823.277344 744.878906 L 741.925781 885.789062 C 717.566406 928.027344 672.085938 954.289062 623.363281 954.289062 C 573.859375 954.289062 529.496094 928.699219 504.691406 885.789062 C 479.882812 842.988281 479.882812 791.699219 504.691406 748.789062 L 647.054688 502.390625 C 661.804688 476.800781 688.289062 461.492188 717.789062 461.492188 C 747.289062 461.492188 773.773438 476.800781 788.636719 502.390625 L 793.777344 511.328125 L 808.527344 536.808594 L 755.894531 627.878906 L 717.789062 561.949219 L 583.695312 794.269531 C 571.738281 814.941406 579.671875 833.269531 583.695312 840.195312 C 587.714844 847.125 599.5625 863.214844 623.476562 863.214844 C 639.789062 863.214844 655.097656 854.386719 663.144531 840.195312 L 770.753906 653.804688 L 823.386719 562.730469 L 847.523438 520.828125 C 860.152344 499.035156 887.976562 491.550781 909.765625 504.175781 C 931.558594 516.691406 939.042969 544.515625 926.417969 566.308594 Z M 926.417969 566.308594 " fill-opacity="1" fill-rule="nonzero"/></g><path fill="#c1ec72" d="M 904.292969 458.136719 C 928.652344 513.003906 1009.890625 479.371094 988.4375 423.273438 C 963.964844 368.519531 882.726562 402.152344 904.292969 458.136719 Z M 904.292969 458.136719 " fill-opacity="1" fill-rule="nonzero"/><g clip-path="url(#93acd8c2e4)"><g clip-path="url(#f0b1d32b7e)"><g clip-path="url(#0c4a803236)"><g transform="matrix(1, 0, 0, 1, 853, 303)"><g clip-path="url(#1a07a9d4b7)"><g clip-path="url(#1e0473bcc5)"><g clip-path="url(#bf0a436a0b)"><g clip-path="url(#64fadea8d0)"><path fill="#000000" d="M -13.910156 108.742188 L 97.613281 -13.953125 L 250.027344 124.578125 L 138.5 247.277344 Z M -13.910156 108.742188 " fill-opacity="1" fill-rule="nonzero"/></g></g></g></g></g></g></g></g><g clip-path="url(#987db22202)"><g clip-path="url(#edab88ea79)"><g clip-path="url(#daa171eafe)"><path fill="#c1ec72" d="M 923.621094 424.667969 L 923.621094 424.863281 L 925.25 482.070312 C 925.269531 482.351562 925.351562 482.613281 925.496094 482.859375 C 925.636719 483.101562 925.828125 483.300781 926.0625 483.457031 C 926.300781 483.613281 926.558594 483.710938 926.835938 483.746094 C 927.117188 483.78125 927.390625 483.753906 927.660156 483.664062 L 980.855469 462.738281 L 981.039062 462.660156 C 981.792969 462.269531 982.535156 461.851562 983.261719 461.40625 C 983.988281 460.964844 984.699219 460.5 985.394531 460.011719 C 986.089844 459.523438 986.769531 459.015625 987.433594 458.480469 C 988.097656 457.949219 988.742188 457.398438 989.371094 456.824219 C 990 456.25 990.605469 455.65625 991.195312 455.042969 C 991.785156 454.425781 992.351562 453.796875 992.902344 453.144531 C 993.449219 452.496094 993.976562 451.828125 994.480469 451.140625 C 994.984375 450.457031 995.46875 449.757812 995.925781 449.042969 C 996.386719 448.324219 996.820312 447.597656 997.234375 446.851562 C 997.644531 446.109375 998.03125 445.351562 998.394531 444.582031 C 998.757812 443.8125 999.09375 443.03125 999.40625 442.242188 C 999.71875 441.449219 1000.003906 440.648438 1000.265625 439.839844 C 1000.527344 439.03125 1000.757812 438.210938 1000.96875 437.386719 C 1001.175781 436.5625 1001.355469 435.730469 1001.507812 434.894531 C 1001.660156 434.058594 1001.785156 433.21875 1001.886719 432.375 C 1001.984375 431.527344 1002.054688 430.679688 1002.097656 429.832031 C 1002.144531 428.984375 1002.160156 428.132812 1002.148438 427.28125 C 1002.136719 426.433594 1002.097656 425.582031 1002.03125 424.734375 C 1001.964844 423.886719 1001.871094 423.042969 1001.75 422.199219 C 1001.628906 421.359375 1001.480469 420.519531 1001.304688 419.6875 C 1001.128906 418.855469 1000.925781 418.03125 1000.699219 417.210938 C 1000.46875 416.394531 1000.210938 415.582031 999.929688 414.78125 C 999.648438 413.976562 999.34375 413.183594 999.007812 412.402344 C 998.675781 411.621094 998.316406 410.847656 997.933594 410.089844 C 997.550781 409.328125 997.144531 408.582031 996.710938 407.851562 C 996.28125 407.117188 995.824219 406.398438 995.347656 405.695312 C 994.871094 404.992188 994.367188 404.304688 993.847656 403.636719 C 993.324219 402.964844 992.777344 402.3125 992.214844 401.675781 C 991.648438 401.039062 991.0625 400.421875 990.457031 399.824219 C 989.855469 399.226562 989.230469 398.652344 988.585938 398.09375 C 987.945312 397.535156 987.285156 397 986.605469 396.484375 C 985.929688 395.972656 985.234375 395.480469 984.527344 395.011719 C 983.816406 394.542969 983.09375 394.09375 982.355469 393.671875 C 981.617188 393.25 980.867188 392.851562 980.101562 392.480469 C 979.339844 392.105469 978.5625 391.757812 977.777344 391.433594 C 976.988281 391.109375 976.195312 390.8125 975.386719 390.539062 C 974.582031 390.269531 973.765625 390.023438 972.945312 389.804688 C 972.125 389.585938 971.296875 389.394531 970.460938 389.226562 C 969.628906 389.0625 968.789062 388.925781 967.945312 388.816406 C 967.101562 388.703125 966.253906 388.621094 965.40625 388.566406 C 964.558594 388.507812 963.707031 388.480469 962.859375 388.480469 C 962.007812 388.480469 961.15625 388.507812 960.308594 388.558594 C 959.460938 388.613281 958.613281 388.695312 957.769531 388.804688 C 956.925781 388.914062 956.089844 389.050781 955.253906 389.214844 C 954.417969 389.378906 953.589844 389.570312 952.769531 389.785156 C 951.945312 390.003906 951.132812 390.25 950.324219 390.519531 C 949.519531 390.789062 948.722656 391.085938 947.933594 391.40625 C 947.148438 391.730469 946.371094 392.078125 945.605469 392.449219 C 944.84375 392.820312 944.089844 393.21875 943.351562 393.640625 C 942.613281 394.058594 941.886719 394.503906 941.179688 394.972656 C 940.46875 395.441406 939.773438 395.929688 939.09375 396.445312 C 938.417969 396.957031 937.757812 397.492188 937.113281 398.046875 C 936.46875 398.605469 935.84375 399.179688 935.238281 399.777344 C 934.632812 400.375 934.046875 400.988281 933.480469 401.625 C 932.914062 402.257812 932.367188 402.910156 931.84375 403.582031 C 931.320312 404.25 930.820312 404.9375 930.339844 405.640625 C 929.859375 406.34375 929.402344 407.058594 928.972656 407.792969 C 928.539062 408.523438 928.128906 409.269531 927.746094 410.027344 C 927.359375 410.785156 927 411.558594 926.667969 412.339844 C 926.332031 413.121094 926.023438 413.914062 925.738281 414.714844 C 925.457031 415.515625 925.199219 416.328125 924.96875 417.144531 C 924.738281 417.964844 924.535156 418.789062 924.359375 419.621094 C 924.179688 420.453125 924.03125 421.289062 923.90625 422.132812 C 923.785156 422.972656 923.691406 423.820312 923.621094 424.667969 Z M 971.894531 414.101562 C 972.34375 414.398438 972.777344 414.71875 973.195312 415.058594 C 973.613281 415.398438 974.015625 415.757812 974.398438 416.136719 C 974.78125 416.515625 975.144531 416.914062 975.488281 417.328125 C 975.832031 417.746094 976.15625 418.175781 976.457031 418.625 C 976.757812 419.070312 977.035156 419.53125 977.292969 420.003906 C 977.550781 420.480469 977.78125 420.964844 977.988281 421.460938 C 978.199219 421.960938 978.382812 422.464844 978.542969 422.980469 C 978.699219 423.496094 978.832031 424.019531 978.941406 424.546875 C 979.046875 425.074219 979.128906 425.605469 979.183594 426.144531 C 979.238281 426.679688 979.269531 427.21875 979.269531 427.757812 C 979.273438 428.296875 979.25 428.832031 979.199219 429.371094 C 979.148438 429.90625 979.070312 430.441406 978.96875 430.96875 C 978.867188 431.5 978.738281 432.023438 978.582031 432.539062 C 978.429688 433.054688 978.25 433.5625 978.046875 434.0625 C 977.84375 434.5625 977.613281 435.050781 977.363281 435.527344 C 977.109375 436.003906 976.835938 436.464844 976.539062 436.914062 C 976.238281 437.363281 975.921875 437.800781 975.582031 438.21875 C 975.242188 438.636719 974.882812 439.035156 974.5 439.417969 C 974.121094 439.800781 973.722656 440.164062 973.308594 440.507812 C 972.894531 440.851562 972.464844 441.175781 972.015625 441.476562 C 971.570312 441.777344 971.109375 442.058594 970.632812 442.3125 C 970.160156 442.570312 969.675781 442.804688 969.175781 443.011719 C 968.679688 443.21875 968.171875 443.402344 967.65625 443.5625 C 967.144531 443.722656 966.621094 443.855469 966.09375 443.960938 C 965.5625 444.070312 965.03125 444.152344 964.496094 444.207031 C 963.960938 444.261719 963.421875 444.289062 962.882812 444.292969 C 962.34375 444.296875 961.804688 444.269531 961.269531 444.222656 C 960.730469 444.171875 960.199219 444.09375 959.667969 443.992188 C 959.140625 443.886719 958.617188 443.757812 958.101562 443.605469 C 957.582031 443.449219 957.074219 443.273438 956.578125 443.066406 C 956.078125 442.863281 955.589844 442.636719 955.113281 442.382812 C 954.636719 442.132812 954.171875 441.855469 953.722656 441.558594 C 953.273438 441.261719 952.839844 440.941406 952.421875 440.601562 C 952.003906 440.261719 951.601562 439.902344 951.21875 439.523438 C 950.835938 439.144531 950.472656 438.746094 950.128906 438.332031 C 949.785156 437.914062 949.464844 437.484375 949.160156 437.039062 C 948.859375 436.589844 948.582031 436.128906 948.324219 435.65625 C 948.070312 435.179688 947.835938 434.695312 947.628906 434.199219 C 947.417969 433.699219 947.234375 433.195312 947.078125 432.679688 C 946.917969 432.164062 946.785156 431.640625 946.675781 431.113281 C 946.570312 430.585938 946.488281 430.054688 946.433594 429.515625 C 946.378906 428.980469 946.347656 428.441406 946.347656 427.902344 C 946.34375 427.363281 946.367188 426.828125 946.417969 426.289062 C 946.46875 425.753906 946.546875 425.21875 946.648438 424.691406 C 946.75 424.160156 946.878906 423.636719 947.035156 423.121094 C 947.1875 422.605469 947.367188 422.097656 947.570312 421.597656 C 947.777344 421.097656 948.003906 420.613281 948.253906 420.132812 C 948.507812 419.65625 948.78125 419.195312 949.078125 418.746094 C 949.378906 418.296875 949.695312 417.863281 950.035156 417.445312 C 950.375 417.023438 950.738281 416.625 951.117188 416.242188 C 951.496094 415.859375 951.894531 415.496094 952.308594 415.152344 C 952.722656 414.808594 953.15625 414.484375 953.601562 414.183594 C 954.046875 413.882812 954.507812 413.601562 954.984375 413.347656 C 955.457031 413.089844 955.945312 412.859375 956.441406 412.648438 C 956.9375 412.441406 957.445312 412.257812 957.960938 412.097656 C 958.476562 411.9375 958.996094 411.804688 959.523438 411.699219 C 960.054688 411.589844 960.585938 411.507812 961.121094 411.453125 C 961.660156 411.398438 962.195312 411.371094 962.734375 411.367188 C 963.273438 411.367188 963.8125 411.390625 964.347656 411.441406 C 964.886719 411.492188 965.417969 411.566406 965.949219 411.667969 C 966.476562 411.773438 967 411.902344 967.515625 412.054688 C 968.035156 412.210938 968.542969 412.390625 969.039062 412.59375 C 969.539062 412.796875 970.027344 413.023438 970.503906 413.277344 C 970.980469 413.527344 971.445312 413.804688 971.894531 414.101562 Z M 971.894531 414.101562 " fill-opacity="1" fill-rule="nonzero"/></g></g></g></svg>